<svg width="965" height="1905" viewBox="0 0 965 1905" fill="none" xmlns="http://www.w3.org/2000/svg">
<path d="M953.031 127.512C953.031 93.6914 939.609 61.25 915.699 37.3203C891.781 13.4297 859.359 0 825.551 0H142.617C108.785 0 76.3398 13.4297 52.418 37.3594C28.4922 61.2891 15.0469 93.7383 15.0469 127.559C15.0469 474.18 15.0469 1430.3 15.0469 1776.79C15.0469 1810.62 28.4844 1843.05 52.3906 1866.98C76.3008 1890.88 108.73 1904.31 142.535 1904.31H825.551C859.359 1904.31 891.781 1890.88 915.699 1866.98C939.609 1843.05 953.031 1810.62 953.031 1776.79V127.512Z" fill="#282F36"/>
<path d="M953.031 127.512C953.031 93.6914 939.609 61.25 915.699 37.3203C891.781 13.4297 859.359 0 825.551 0H142.617C108.785 0 76.3398 13.4297 52.418 37.3594C28.4922 61.2891 15.0469 93.7383 15.0469 127.559V1776.79C15.0469 1810.62 28.4844 1843.05 52.3906 1866.98C76.3008 1890.88 108.73 1904.31 142.535 1904.31H825.551C859.359 1904.31 891.781 1890.88 915.699 1866.98C939.609 1843.05 953.031 1810.62 953.031 1776.79V127.512ZM953.031 127.512V1776.79C953.031 1810.62 939.609 1843.05 915.699 1866.98C891.781 1890.88 859.359 1904.31 825.551 1904.31H142.535C108.73 1904.31 76.3008 1890.88 52.3906 1866.98C28.4844 1843.05 15.0469 1810.62 15.0469 1776.79V127.559C15.0469 93.7383 28.4922 61.2891 52.418 37.3594C76.3398 13.4297 108.785 0 142.617 0H825.551C859.359 0 891.781 13.4297 915.699 37.3203C939.609 61.25 953.031 93.6914 953.031 127.512Z" fill="black"/>
<path d="M941.98 432.641H954.859C957.301 432.641 959.648 434.27 961.379 437.148C963.098 440.051 964.07 443.969 964.07 448.051C964.07 489.352 964.07 602.18 964.07 643.68C964.07 652.27 959.91 659.238 954.77 659.238C948.719 659.238 941.98 659.238 941.98 659.238V432.641Z" fill="black"/>
<path d="M941.98 432.641H954.859C957.301 432.641 959.648 434.27 961.379 437.148C963.098 440.051 964.07 443.969 964.07 448.051V643.68C964.07 652.27 959.91 659.238 954.77 659.238H941.98V432.641ZM941.98 432.641V659.238H954.77C959.91 659.238 964.07 652.27 964.07 643.68V448.051C964.07 443.969 963.098 440.051 961.379 437.148C959.648 434.27 957.301 432.641 954.859 432.641H941.98Z" fill="#1F252D"/>
<path d="M22.082 561.898H9.21094C6.76563 561.898 4.41797 562.859 2.69141 564.59C0.96875 566.328 0 568.672 0 571.102C0 595.809 0 663.301 0 688.102C0 693.25 4.16016 697.422 9.30469 697.422C15.3398 697.422 22.082 697.422 22.082 697.422V561.898ZM22.082 387.898H9.21094C6.76563 387.898 4.41797 388.871 2.69141 390.609C0.96875 392.34 0 394.68 0 397.121C0 421.809 0 489.301 0 514.109C0 519.27 4.16016 523.41 9.30469 523.41C15.3398 523.41 22.082 523.41 22.082 523.41V387.898ZM22.082 327.129H9.21094C6.76563 327.129 4.41797 326.16 2.69141 324.422C0.96875 322.699 0 320.359 0 317.898V256.621C0 254.172 0.96875 251.828 2.69141 250.109C4.41797 248.379 6.76563 247.41 9.21094 247.41H22.082V327.129Z" fill="black"/>
<path d="M22.082 561.898H9.21094C6.76563 561.898 4.41797 562.859 2.69141 564.59C0.96875 566.328 0 568.672 0 571.102V688.102C0 693.25 4.16016 697.422 9.30469 697.422H22.082V561.898ZM22.082 561.898V697.422H9.30469C4.16016 697.422 0 693.25 0 688.102V571.102C0 568.672 0.96875 566.328 2.69141 564.59C4.41797 562.859 6.76563 561.898 9.21094 561.898H22.082ZM22.082 387.898H9.21094C6.76563 387.898 4.41797 388.871 2.69141 390.609C0.96875 392.34 0 394.68 0 397.121V514.109C0 519.27 4.16016 523.41 9.30469 523.41H22.082V387.898ZM22.082 387.898V523.41H9.30469C4.16016 523.41 0 519.27 0 514.109V397.121C0 394.68 0.96875 392.34 2.69141 390.609C4.41797 388.871 6.76563 387.898 9.21094 387.898H22.082ZM22.082 327.129H9.21094C6.76563 327.129 4.41797 326.16 2.69141 324.422C0.96875 322.699 0 320.359 0 317.898V256.621C0 254.172 0.96875 251.828 2.69141 250.109C4.42188 248.379 6.76172 247.41 9.21094 247.41H22.082V327.129ZM22.082 327.129V247.41H9.21094C6.76172 247.41 4.42188 248.379 2.69141 250.109C0.96875 251.828 0 254.172 0 256.621V317.898C0 320.359 0.96875 322.699 2.69141 324.422C4.41797 326.16 6.76563 327.129 9.21094 327.129H22.082Z" fill="#1F252D"/>
<path d="M898.258 1760.23V144.102C898.258 95.5117 858.891 56.1211 810.301 56.1211C651.102 56.1211 316.945 56.1211 157.762 56.1211C134.438 56.1211 112.074 65.3516 95.5781 81.8516C79.0859 98.3594 69.8281 120.738 69.8281 144.07V1760.23C69.8281 1808.81 109.199 1848.22 157.789 1848.22C316.98 1848.22 651.109 1848.22 810.301 1848.22C858.891 1848.22 898.258 1808.81 898.258 1760.23Z" fill="#FAFCFE"/>
<path d="M898.258 1760.23V144.102C898.258 95.5117 858.891 56.1211 810.301 56.1211H157.762C134.438 56.1211 112.07 65.3516 95.5781 81.8516C79.0859 98.3594 69.8281 120.738 69.8281 144.07V1760.23C69.8281 1808.81 109.199 1848.22 157.789 1848.22H810.301C858.891 1848.22 898.258 1808.81 898.258 1760.23ZM898.258 1760.23C898.258 1808.81 858.891 1848.22 810.301 1848.22H157.789C109.199 1848.22 69.8281 1808.81 69.8281 1760.23V144.07C69.8281 120.738 79.0859 98.3594 95.5781 81.8516C112.07 65.3516 134.438 56.1211 157.762 56.1211H810.301C858.891 56.1211 898.258 95.5117 898.258 144.102V1760.23Z" fill="black"/>
<path d="M716.359 12.1211L245.188 12.1406V74.1992C245.188 86 249.871 97.3203 258.223 105.66C266.559 114.012 277.875 118.691 289.668 118.691C379.535 118.691 581.832 118.691 671.789 118.691C683.621 118.691 694.949 113.988 703.289 105.621C711.66 97.2617 716.359 85.9297 716.359 74.0898C716.359 44.9102 716.359 12.1211 716.359 12.1211Z" fill="#282F36"/>
<path d="M716.359 12.1211L245.188 12.1406V74.1992C245.188 86 249.871 97.3203 258.223 105.66C266.559 114.012 277.875 118.691 289.668 118.691H671.789C683.621 118.691 694.949 113.988 703.289 105.621C711.66 97.2617 716.359 85.9297 716.359 74.0898V12.1211ZM716.359 12.1211V74.0898C716.359 85.9297 711.66 97.2617 703.289 105.621C694.949 113.988 683.621 118.691 671.789 118.691H289.668C277.875 118.691 266.559 114.012 258.223 105.66C249.871 97.3203 245.188 86 245.188 74.1992V12.1406L716.359 12.1211Z" fill="black"/>
<rect x="389" y="68" width="184" height="20" rx="10" fill="#1F252D"/>
</svg>
